<?xml version="1.0" encoding="UTF-8"?>
<svg version="1.1" xmlns="http://www.w3.org/2000/svg" width="541" height="163">
<path d="M0 0 C0.82831329 -0.01283524 1.65662659 -0.02567047 2.51004028 -0.03889465 C3.39859711 -0.04628159 4.28715393 -0.05366852 5.20263672 -0.0612793 C6.59021683 -0.07338692 6.59021683 -0.07338692 8.00582886 -0.08573914 C9.96431619 -0.0995583 11.92282739 -0.11029013 13.88134766 -0.11816406 C15.87132899 -0.12965842 17.86128011 -0.15006968 19.85107422 -0.1796875 C22.73930636 -0.22265571 25.6266234 -0.23857535 28.51513672 -0.2487793 C29.39154816 -0.26628738 30.26795959 -0.28379547 31.17092896 -0.30183411 C38.78720946 -0.27553423 45.33930804 1.73012129 51.56201172 6.18481445 C59.19660103 13.99226239 62.07227968 20.38245944 62.06982422 31.36450195 C62.01188618 34.30469464 61.89061187 37.23939497 61.75732422 40.17700195 C61.73508789 40.86084961 61.71285156 41.54469727 61.68994141 42.24926758 C61.30058891 54.18553662 59.92534219 64.93568095 51.75732422 74.17700195 C45.48395973 79.17700195 45.48395973 79.17700195 41.75732422 79.17700195 C47.44501226 90.64810556 53.13790543 102.11236183 59.13232422 113.42700195 C64.9060385 124.34014481 64.9060385 124.34014481 67.38232422 129.17700195 C68.08228516 130.53825195 68.08228516 130.53825195 68.79638672 131.92700195 C69.75732422 134.17700195 69.75732422 134.17700195 69.75732422 137.17700195 C61.83732422 137.17700195 53.91732422 137.17700195 45.75732422 137.17700195 C44.10732422 133.87700195 42.45732422 130.57700195 40.75732422 127.17700195 C39.80574135 125.53569686 38.83325071 123.90585953 37.81982422 122.30200195 C35.74789869 118.90968055 33.87706127 115.49834055 32.13232422 111.92700195 C25.84028414 99.09257538 18.70205548 86.66636272 11.75732422 74.17700195 C11.75954483 74.95152206 11.76176544 75.72604218 11.76405334 76.52403259 C11.78405556 83.80821217 11.79929799 91.0923785 11.80913639 98.37657833 C11.81436436 102.12183233 11.82146044 105.86706371 11.83276367 109.61230469 C11.84359563 113.22381883 11.8496017 116.83531116 11.85220146 120.44684029 C11.85405516 121.82760525 11.85767471 123.20836896 11.86305428 124.58912468 C11.87026869 126.51676147 11.87073231 128.44442002 11.87084961 130.37207031 C11.87307022 131.47127304 11.87529083 132.57047577 11.87757874 133.70298767 C11.75732422 136.17700195 11.75732422 136.17700195 10.75732422 137.17700195 C9.19559677 137.26385798 7.63003078 137.28402415 6.06591797 137.2746582 C5.12167969 137.27143555 4.17744141 137.26821289 3.20458984 137.26489258 C2.21136719 137.25651367 1.21814453 137.24813477 0.19482422 137.23950195 C-0.80226562 137.23499023 -1.79935547 137.23047852 -2.82666016 137.22583008 C-5.29872427 137.21400202 -7.77067096 137.19752045 -10.24267578 137.17700195 C-10.3975232 129.17019011 -10.54568471 121.1632927 -10.68563938 113.15620804 C-10.75085005 109.43699689 -10.81824262 105.71785361 -10.89086914 101.9987793 C-10.9610569 98.40026635 -11.0251901 94.801689 -11.08537102 91.2029953 C-11.12066613 89.18255699 -11.16200585 87.16222712 -11.20350647 85.14190674 C-11.32664112 77.41913369 -11.05871873 69.85891706 -10.24267578 62.17700195 C-3.93233214 59.97571929 1.40873331 59.05939799 8.10498047 59.0012207 C9.52882365 58.97803895 10.95265186 58.95392231 12.37646484 58.92895508 C14.60386469 58.89377136 16.8307048 58.86443669 19.05834961 58.85107422 C21.22039729 58.8355953 23.38085404 58.7954189 25.54248047 58.7512207 C26.83033447 58.73663818 28.11818848 58.72205566 29.44506836 58.70703125 C33.27408252 58.09430996 34.42406707 57.20164692 36.75732422 54.17700195 C38.87608701 49.93947637 38.11964408 44.45798597 38.19482422 39.80200195 C38.24058594 38.6521582 38.28634766 37.50231445 38.33349609 36.31762695 C38.56062484 29.81166446 38.56062484 29.81166446 35.37841797 24.43481445 C30.64461722 22.79049532 26.3644541 22.50518088 21.38232422 22.42700195 C20.45548828 22.39735352 19.52865234 22.36770508 18.57373047 22.3371582 C16.30150987 22.26688334 14.03028962 22.21398147 11.75732422 22.17700195 C11.76517944 23.66864868 11.76517944 23.66864868 11.77319336 25.19042969 C11.79124463 28.86734116 11.80275668 32.5442487 11.81225586 36.22119141 C11.81729579 37.8149481 11.82412772 39.40870014 11.83276367 41.00244141 C11.8448442 43.28850448 11.85055577 45.57450662 11.85498047 47.8605957 C11.86014175 48.57726913 11.86530304 49.29394257 11.87062073 50.03233337 C11.87081685 51.74763868 11.81924429 53.46281462 11.75732422 55.17700195 C10.75732422 56.17700195 10.75732422 56.17700195 8.09716797 56.30981445 C6.97439453 56.30723633 5.85162109 56.3046582 4.69482422 56.30200195 C3.59009766 56.30458008 2.48537109 56.3071582 1.34716797 56.30981445 C-2.57770058 56.16460713 -6.34905873 55.68406595 -10.24267578 55.17700195 C-10.29263993 50.39389516 -10.32865834 45.610945 -10.35253906 40.82763672 C-10.36250935 39.20521392 -10.37609047 37.58280866 -10.39355469 35.96044922 C-10.56640572 19.47351068 -10.56640572 19.47351068 -8.48046875 11.33447266 C-8.18631531 8.66564928 -8.97386748 7.48728277 -10.24267578 5.17700195 C-9.61767578 2.98950195 -9.61767578 2.98950195 -8.24267578 1.17700195 C-5.47536456 0.26171549 -2.90135469 0.0394036 0 0 Z " fill="#FCFDFC" transform="translate(154.24267578125,13.822998046875)"/>
<path d="M0 0 C1.24716797 -0.02900391 2.49433594 -0.05800781 3.77929688 -0.08789062 C13.65585679 -0.15536056 22.24263656 1.15560198 29.5625 8.3125 C40.05729591 20.91046142 39.14669417 35.49915865 37.81738281 50.97070312 C36.69995913 61.2373008 33.36256062 69.39881335 25.34375 76.05078125 C21.81703269 78.54887268 20.0056739 79.3125 15.5625 79.3125 C15.82353516 79.80427734 16.08457031 80.29605469 16.35351562 80.80273438 C21.17330643 89.89365329 25.95058134 98.99707974 30.50610352 108.22363281 C33.64866179 114.55796346 36.96773579 120.79727412 40.32617188 127.01953125 C40.73287109 127.78136719 41.13957031 128.54320312 41.55859375 129.328125 C41.92138428 130.00133789 42.2841748 130.67455078 42.65795898 131.36816406 C43.57285696 133.33476257 44.10950343 135.19595835 44.5625 137.3125 C40.68879549 137.57496434 36.81737619 137.73403564 32.9375 137.875 C31.84308594 137.95041016 30.74867188 138.02582031 29.62109375 138.10351562 C21.68225325 138.32002946 21.68225325 138.32002946 18.58203125 135.53051758 C16.99042338 133.19371611 15.75090575 130.87594395 14.5625 128.3125 C14.2207373 127.66885498 13.87897461 127.02520996 13.52685547 126.36206055 C12.57143458 124.55374335 11.68709502 122.72361414 10.8125 120.875 C8.34719864 115.77739104 5.74043578 110.82670303 2.89111328 105.93334961 C-12.4375 79.49991564 -12.4375 79.49991564 -12.4375 69.3125 C-14.4175 69.8075 -14.4175 69.8075 -16.4375 70.3125 C-16.08816406 70.80234375 -15.73882812 71.2921875 -15.37890625 71.796875 C-9.97129331 80.68190477 -10.50347132 90.26286966 -10.4375 100.3125 C-10.42399493 101.67171555 -10.41013934 103.03092766 -10.39599609 104.39013672 C-10.35249703 108.86422382 -10.32785505 113.33823339 -10.3125 117.8125 C-10.30954926 118.55017609 -10.30659851 119.28785217 -10.30355835 120.04788208 C-10.29780578 122.16739241 -10.29982024 124.28674017 -10.3046875 126.40625 C-10.30581543 127.64052734 -10.30694336 128.87480469 -10.30810547 130.14648438 C-10.4375 133.3125 -10.4375 133.3125 -11.4375 137.3125 C-18.6975 137.3125 -25.9575 137.3125 -33.4375 137.3125 C-33.46004836 123.50908762 -33.47841354 109.70568737 -33.48931217 95.90226078 C-33.49454166 89.49350872 -33.5016405 83.08476985 -33.51293945 76.67602539 C-33.52376599 70.49690559 -33.52977634 64.31779852 -33.53237724 58.13866997 C-33.53423192 55.7754439 -33.53785332 53.41221856 -33.54323006 51.04899788 C-33.55043738 47.75148104 -33.55149107 44.45401753 -33.55102539 41.15649414 C-33.55462067 40.16891113 -33.55821594 39.18132813 -33.56192017 38.16381836 C-33.5605455 37.27054337 -33.55917084 36.37726837 -33.55775452 35.45692444 C-33.55867631 34.67616578 -33.5595981 33.89540712 -33.56054783 33.09098911 C-33.4375 31.3125 -33.4375 31.3125 -32.4375 30.3125 C-30.58380389 30.22512355 -28.72682459 30.20551847 -26.87109375 30.21484375 C-25.85845459 30.21734131 -24.84581543 30.21983887 -23.80249023 30.22241211 C-22.50641846 30.23151611 -21.21034668 30.24062012 -19.875 30.25 C-13.7184375 30.2809375 -13.7184375 30.2809375 -7.4375 30.3125 C-7.1075 39.5525 -6.7775 48.7925 -6.4375 58.3125 C6.22085921 59.35599839 6.22085921 59.35599839 11.5625 56.3125 C14.27805917 51.20187828 14.00330873 45.9652666 14.0625 40.3125 C14.10375 39.32765625 14.145 38.3428125 14.1875 37.328125 C14.3519268 32.13776602 14.3519268 32.13776602 12.296875 27.546875 C7.56427209 23.47027646 3.21050372 23.17004597 -2.73046875 23.21484375 C-3.43649734 23.2162587 -4.14252594 23.21767365 -4.86994934 23.21913147 C-7.12167626 23.22472236 -9.37330321 23.23727312 -11.625 23.25 C-13.15299335 23.25501618 -14.68098827 23.25957888 -16.20898438 23.26367188 C-19.95186135 23.2746888 -23.69466373 23.29194713 -27.4375 23.3125 C-26.94187186 19.21227046 -26.28780166 16.53013753 -23.75 13.26171875 C-23.21632813 12.56369141 -22.68265625 11.86566406 -22.1328125 11.14648438 C-21.57335937 10.43814453 -21.01390625 9.72980469 -20.4375 9 C-19.87804687 8.27232422 -19.31859375 7.54464844 -18.7421875 6.79492188 C-12.8902549 -0.78856083 -9.69460925 0.07311168 0 0 Z " fill="#FBFCFB" transform="translate(321.4375,13.6875)"/>
<path d="M0 0 C7.59 0 15.18 0 23 0 C21.76693235 6.7818721 20.63915656 12.80734881 18.453125 19.20703125 C18.20541351 19.95439545 17.95770203 20.70175964 17.70248413 21.47177124 C17.16891588 23.08113413 16.63237082 24.68951269 16.09307861 26.29696655 C14.61923362 30.69454741 13.17161287 35.10069888 11.7265625 39.5078125 C11.42289764 40.43363632 11.11923279 41.35946014 10.80636597 42.31333923 C6.63931678 55.08559717 2.79204112 67.95701265 -1.06542969 80.82543945 C-4.59287346 92.56249919 -8.35348863 104.20097539 -12.26818848 115.81430054 C-13.71305279 120.12967282 -15.08386142 124.46781866 -16.4375 128.8125 C-16.69208984 129.62396484 -16.94667969 130.43542969 -17.20898438 131.27148438 C-17.80765932 133.18046674 -18.40412431 135.09014202 -19 137 C-23.62 137 -28.24 137 -33 137 C-36.36557974 128.49870861 -39.33834897 120.03106759 -41.875 111.25 C-42.21233154 110.09838379 -42.54966309 108.94676758 -42.8972168 107.76025391 C-45.55934228 98.63172168 -48.13718226 89.47926279 -50.65380859 80.30957031 C-51.85782278 75.94584231 -53.09775357 71.62249038 -54.56640625 67.33984375 C-56.04144063 63.01204351 -57.12360229 58.64572261 -58.125 54.1875 C-58.46078165 52.72262052 -58.79671409 51.25777559 -59.1328125 49.79296875 C-59.41898438 48.54128906 -59.70515625 47.28960937 -60 46 C-60.20351074 45.28239502 -60.40702148 44.56479004 -60.61669922 43.82543945 C-60.74318848 43.22304443 -60.86967773 42.62064941 -61 42 C-59.38219843 40.38219843 -57.54364482 40.77727853 -55.30859375 40.68359375 C-54.36435547 40.64169922 -53.42011719 40.59980469 -52.44726562 40.55664062 C-51.45404297 40.51732422 -50.46082031 40.47800781 -49.4375 40.4375 C-48.44041016 40.39431641 -47.44332031 40.35113281 -46.41601562 40.30664062 C-43.9441585 40.20019702 -41.4721969 40.09818072 -39 40 C-36.90366135 44.68227285 -35.23943264 49.26099525 -33.84375 54.2109375 C-33.45749552 55.55091516 -33.07076336 56.89075521 -32.68359375 58.23046875 C-32.08593475 60.31609598 -31.4922563 62.40262877 -30.90673828 64.49169922 C-30.33424265 66.52645001 -29.74649289 68.55627557 -29.15625 70.5859375 C-28.64288086 72.39650635 -28.64288086 72.39650635 -28.11914062 74.24365234 C-27.56516602 75.60804443 -27.56516602 75.60804443 -27 77 C-26.01 77.33 -25.02 77.66 -24 78 C-23.91290771 77.39373779 -23.82581543 76.78747559 -23.73608398 76.1628418 C-22.33084086 67.44808733 -19.74858258 59.19366226 -17.0625 50.8125 C-16.57824784 49.28543885 -16.09411896 47.7583386 -15.61010742 46.23120117 C-10.67371984 30.72971242 -5.37445564 15.35410247 0 0 Z M-26 80 C-25 82 -25 82 -25 82 Z " fill="#FCFDFD" transform="translate(85,14)"/>
<path d="M0 0 C1.64868972 3.29737945 0.57949926 6.82164216 0.125 10.375 C-0.01228516 11.52742188 -0.01228516 11.52742188 -0.15234375 12.703125 C-0.58714563 16.24277977 -1.13105491 19.52421962 -2 23 C-9.26 23.33 -16.52 23.66 -24 24 C-23.98839844 27.03445312 -23.97679687 30.06890625 -23.96484375 33.1953125 C-23.8910032 58.88647961 -24.05904201 84.56320381 -24.5 110.25 C-24.51793673 111.29530758 -24.51793673 111.29530758 -24.53623581 112.36173248 C-24.68354496 120.90795812 -24.83878756 129.45402539 -25 138 C-32.59 138 -40.18 138 -48 138 C-48.1547788 130.09680486 -48.30369262 122.19356066 -48.4429636 114.29007912 C-48.50788922 110.61811449 -48.57514408 106.94622677 -48.64819336 103.27441406 C-49.21288326 74.74020866 -49.21288326 74.74020866 -48.24243164 61.00244141 C-47.74234042 53.63990512 -47.89491093 46.25014197 -47.9375 38.875 C-47.94253819 37.3190119 -47.94709689 35.76302217 -47.95117188 34.20703125 C-47.96196374 30.47131914 -47.97909259 26.73567089 -48 23 C-49.48113281 23.01740234 -49.48113281 23.01740234 -50.9921875 23.03515625 C-52.27351563 23.04417969 -53.55484375 23.05320312 -54.875 23.0625 C-56.15117187 23.07410156 -57.42734375 23.08570312 -58.7421875 23.09765625 C-62 23 -62 23 -64 22 C-65 19.84765625 -65 19.84765625 -66 17.0625 C-66.495 15.71865234 -66.495 15.71865234 -67 14.34765625 C-67.85443156 11.48731309 -68.49016308 8.71550258 -69.0625 5.79077148 C-69.23910156 4.89285385 -69.41570312 3.99493622 -69.59765625 3.06980896 C-69.73042969 2.386772 -69.86320313 1.70373505 -70 1 C-61.75906927 0.86905959 -53.51813067 0.7386309 -45.27718163 0.60884857 C-41.45024598 0.54856426 -37.62331325 0.48810623 -33.79638672 0.42724609 C-30.10056823 0.36847746 -26.40474269 0.31017183 -22.7089119 0.25218201 C-21.30157843 0.23001971 -19.89424755 0.20769292 -18.4869194 0.18519592 C-16.51000404 0.15362233 -14.53307835 0.12269727 -12.55615234 0.09179688 C-10.87070816 0.06514954 -10.87070816 0.06514954 -9.1512146 0.03796387 C-6.10044593 0.00121011 -3.05095484 -0.00675777 0 0 Z " fill="#FCFDFD" transform="translate(288,13)"/>
<path d="M0 0 C0.87454834 0.04713135 1.74909668 0.0942627 2.65014648 0.14282227 C4.06650391 0.21533203 4.06650391 0.21533203 5.51147461 0.28930664 C7.00130859 0.37341797 7.00130859 0.37341797 8.52124023 0.45922852 C9.51833008 0.51143555 10.51541992 0.56364258 11.54272461 0.61743164 C14.01501545 0.74755221 16.48694653 0.88253033 18.95874023 1.02172852 C18.99075019 9.60504222 19.01018085 18.18836295 19.02124023 26.77172852 C19.02209625 27.43118343 19.02295227 28.09063835 19.02383423 28.77007675 C19.05237097 53.7945651 18.80818998 78.81236719 18.45874023 103.83422852 C18.44678242 104.69080551 18.4348246 105.54738251 18.42250443 106.42991638 C18.27486238 116.96062768 18.11962254 127.49121163 17.95874023 138.02172852 C12.01874023 138.02172852 6.07874023 138.02172852 -0.04125977 138.02172852 C-0.76829102 136.62825195 -1.49532227 135.23477539 -2.24438477 133.79907227 C-2.72423828 132.87940674 -3.2040918 131.95974121 -3.69848633 131.01220703 C-4.77353357 128.95158996 -5.84839906 126.89087807 -6.9230957 124.83007812 C-9.68748516 119.52979102 -12.45440716 114.23087072 -15.22875977 108.93579102 C-20.28777226 99.27403772 -25.31718818 89.60327648 -30.15063477 79.82641602 C-31.51372365 77.06985091 -32.90368325 74.32840268 -34.30688477 71.59204102 C-34.86714355 70.49267212 -34.86714355 70.49267212 -35.4387207 69.37109375 C-36.15604394 67.96456202 -36.8778209 66.56028981 -37.60473633 65.15869141 C-39.08246745 62.24759092 -40.04125977 60.3342431 -40.04125977 57.02172852 C-36.47986911 56.78869427 -32.92043531 56.64711071 -29.35375977 56.52172852 C-27.84265625 56.42118164 -27.84265625 56.42118164 -26.30102539 56.31860352 C-19.01604917 56.12626091 -19.01604917 56.12626091 -16.37011719 58.55688477 C-15.04007538 60.65336093 -14.03211206 62.74656509 -13.04125977 65.02172852 C-12.30479583 66.38115638 -11.55890462 67.73552582 -10.80297852 69.08422852 C-10.1085805 70.39514813 -9.41715147 71.70764491 -8.72875977 73.02172852 C-8.19025391 74.04073242 -8.19025391 74.04073242 -7.64086914 75.08032227 C-6.77165011 76.72604363 -5.90605655 78.37367905 -5.04125977 80.02172852 C-3.78981584 78.99371111 -3.78981584 78.99371111 -3.92773438 76.78945923 C-3.93297119 75.80085907 -3.93820801 74.81225891 -3.94360352 73.79370117 C-3.94855835 72.11396713 -3.94855835 72.11396713 -3.95361328 70.40029907 C-3.96191162 69.17451141 -3.97020996 67.94872375 -3.97875977 66.68579102 C-3.98254639 65.42270111 -3.98633301 64.15961121 -3.99023438 62.85824585 C-4.00454016 58.11153425 -4.0273561 53.36489422 -4.05163574 48.6182251 C-4.19475873 20.21693439 -4.19475873 20.21693439 -3.60375977 8.67016602 C-3.56452393 7.89001129 -3.52528809 7.10985657 -3.48486328 6.30606079 C-3.10618489 0.03306428 -3.10618489 0.03306428 0 0 Z " fill="#FCFCFC" transform="translate(509.041259765625,12.978271484375)"/>
<path d="M0 0 C0.79921875 -0.01611328 1.5984375 -0.03222656 2.421875 -0.04882812 C12.77393181 -0.05720358 20.64576125 3.52407759 28.25 10.5 C38.99253024 21.71786344 36.77061272 38.13852242 36.6875 52.5625 C36.68247043 54.09765478 36.67791012 55.63281116 36.67382812 57.16796875 C36.66380947 60.88288631 36.64421514 64.59757386 36.625 68.3125 C28.705 68.3125 20.785 68.3125 12.625 68.3125 C12.59921875 65.54359375 12.5734375 62.7746875 12.546875 59.921875 C12.50845299 57.23768991 12.46329335 54.55369682 12.41748047 51.86962891 C12.38926994 50.00546447 12.36805579 48.1411804 12.35400391 46.27685547 C12.33257516 43.59540559 12.28592702 40.91539414 12.234375 38.234375 C12.23314636 37.40194275 12.23191772 36.5695105 12.23065186 35.71185303 C12.11952981 30.90304875 12.11952981 30.90304875 9.71191406 26.81738281 C4.80861729 23.28159417 -0.50744181 23.72574418 -6.375 24.3125 C-9.44865786 26.12053404 -10.80519732 27.17289464 -12.375 30.3125 C-12.44965563 32.98815785 -12.4662955 35.6375937 -12.4375 38.3125 C-12.43371338 39.10398438 -12.42992676 39.89546875 -12.42602539 40.7109375 C-12.41378549 43.24484624 -12.39515568 45.77864257 -12.375 48.3125 C-12.34848487 51.64583026 -12.32844764 54.97910432 -12.3125 58.3125 C-12.30420166 59.08335938 -12.29590332 59.85421875 -12.28735352 60.6484375 C-12.26219819 66.08689638 -12.26219819 66.08689638 -13.375 68.3125 C-17.02081687 68.34137512 -20.66660463 68.35925585 -24.3125 68.375 C-25.87387695 68.38756836 -25.87387695 68.38756836 -27.46679688 68.40039062 C-28.45615234 68.40361328 -29.44550781 68.40683594 -30.46484375 68.41015625 C-31.83950806 68.41801147 -31.83950806 68.41801147 -33.24194336 68.42602539 C-35.375 68.3125 -35.375 68.3125 -36.375 67.3125 C-36.44180285 64.24071751 -36.44356756 61.19569233 -36.39453125 58.125 C-36.38040695 57.19333008 -36.36628265 56.26166016 -36.35173035 55.30175781 C-36.31852798 53.3210725 -36.28215984 51.34043818 -36.24291992 49.35986328 C-36.18823941 46.35315803 -36.15930245 43.34689497 -36.13085938 40.33984375 C-36.09535699 38.4140322 -36.05829522 36.48824866 -36.01953125 34.5625 C-36.01516556 33.67151611 -36.01079987 32.78053223 -36.00630188 31.86254883 C-35.76164667 22.72531827 -32.49772275 15.75289919 -26.296875 9.1015625 C-18.61725809 1.95265083 -10.28478752 -0.04107343 0 0 Z " fill="#FDFDFD" transform="translate(405.375,12.6875)"/>
<path d="M0 0 C7.59 0 15.18 0 23 0 C22.96519531 2.16820313 22.93039062 4.33640625 22.89453125 6.5703125 C22.87109201 8.68520798 22.85290045 10.80008863 22.83520508 12.91503906 C22.82017804 14.37767075 22.79975045 15.84025782 22.77368164 17.30273438 C22.73702733 19.4128728 22.72021324 21.52241226 22.70703125 23.6328125 C22.6913208 24.90012207 22.67561035 26.16743164 22.65942383 27.47314453 C23.03374513 31.34944957 23.94085374 33.71295564 26 37 C30.45397184 39.96931456 34.77462015 39.51259217 40 39 C43.08073848 37.6168113 44.6384567 36.3615433 47 34 C47.23303892 31.50755388 47.34925469 29.11741428 47.37890625 26.62109375 C47.39590073 25.89382584 47.4128952 25.16655792 47.43040466 24.41725159 C47.48360694 22.09075624 47.52386831 19.76427942 47.5625 17.4375 C47.60637668 15.10724094 47.65303109 12.77712287 47.70530701 10.44703674 C47.73734923 8.99592133 47.76421259 7.544681 47.78553772 6.09336853 C47.88826809 1.11173191 47.88826809 1.11173191 49 0 C50.62257544 -0.0991657 52.24939831 -0.13079777 53.875 -0.1328125 C54.85984375 -0.13410156 55.8446875 -0.13539062 56.859375 -0.13671875 C57.89578125 -0.13285156 58.9321875 -0.12898438 60 -0.125 C61.55460937 -0.13080078 61.55460937 -0.13080078 63.140625 -0.13671875 C64.12546875 -0.13542969 65.1103125 -0.13414063 66.125 -0.1328125 C67.03507812 -0.13168457 67.94515625 -0.13055664 68.8828125 -0.12939453 C71 0 71 0 72 1 C72.09972499 2.53124898 72.13080663 4.06707089 72.1328125 5.6015625 C72.13522949 6.55957764 72.13764648 7.51759277 72.14013672 8.50463867 C72.11976723 12.70371007 72.09202098 16.90229779 72.03710938 21.10107422 C72.01465441 22.85522074 71.99848919 24.60948468 71.99414062 26.36376953 C71.94168351 37.52402172 69.37175021 46.53912595 61.75 54.9375 C52.046899 63.73698628 40.54437127 64.76696163 27.95507812 64.17041016 C18.95619256 63.38604176 11.75845382 58.78757508 6 52 C1.5032143 44.73844414 -0.15005457 38.67918531 -0.09765625 30.17578125 C-0.09553383 28.88367989 -0.09553383 28.88367989 -0.09336853 27.56547546 C-0.0877714 24.81444831 -0.07521946 22.06350256 -0.0625 19.3125 C-0.05748463 17.4472668 -0.05292179 15.58203233 -0.04882812 13.71679688 C-0.03865384 9.14447466 -0.01907787 4.57232845 0 0 Z " fill="#FDFDFD" transform="translate(370,88)"/>
<path d="M0 0 C10 0 10 0 12.22094727 1.62060547 C12.66494873 2.36197754 13.1089502 3.10334961 13.56640625 3.8671875 C14.07107422 4.67027344 14.57574219 5.47335938 15.09570312 6.30078125 C15.57974609 7.15027344 16.06378906 7.99976562 16.5625 8.875 C17.34077148 10.13763672 17.34077148 10.13763672 18.13476562 11.42578125 C23.12472737 19.57931352 23.12472737 19.57931352 23.12939453 25.1965332 C23.13254669 26.28138504 23.13569885 27.36623688 23.13894653 28.48396301 C23.1369223 29.66101303 23.13489807 30.83806305 23.1328125 32.05078125 C23.13424759 33.85992256 23.13424759 33.85992256 23.13571167 35.70561218 C23.13639332 38.26199394 23.13454006 40.81837741 23.13037109 43.37475586 C23.12503658 47.28568428 23.13030942 51.19649712 23.13671875 55.10742188 C23.13605769 57.58854192 23.13477596 60.06966189 23.1328125 62.55078125 C23.13483673 63.72175858 23.13686096 64.8927359 23.13894653 66.09919739 C23.13579437 67.19350571 23.13264221 68.28781403 23.12939453 69.4152832 C23.12859894 70.37521683 23.12780334 71.33515045 23.12698364 72.32417297 C23 75 23 75 22 80 C14.74 80 7.48 80 0 80 C0 53.6 0 27.2 0 0 Z " fill="#FCFDFD" transform="translate(452,71)"/>
<path d="M0 0 C2.10353495 -0.0810206 4.20795952 -0.13919907 6.3125 -0.1875 C7.48425781 -0.22230469 8.65601563 -0.25710938 9.86328125 -0.29296875 C13 0 13 0 14.83520508 1.36450195 C16.38525099 3.54093405 17.52792162 5.77863373 18.6875 8.1875 C19.21085937 9.26 19.73421875 10.3325 20.2734375 11.4375 C20.84320313 12.613125 21.41296875 13.78875 22 15 C23.26292553 17.56645959 24.53645241 20.1275435 25.8125 22.6875 C26.14072754 23.34919189 26.46895508 24.01088379 26.80712891 24.69262695 C28.66054335 28.40610366 30.56915634 32.08153308 32.546875 35.73046875 C32.96606201 36.50624268 33.38524902 37.2820166 33.81713867 38.08129883 C34.63570401 39.58892898 35.46120104 41.09281993 36.29418945 42.5925293 C37.25572925 44.36394182 38.13616505 46.17894253 39 48 C38.505 48.99 38.505 48.99 38 50 C32.74912156 50.16723026 27.49809906 50.32782815 22.24682617 50.48217773 C20.45900968 50.53567402 18.67124725 50.59100904 16.88354492 50.64819336 C14.31961734 50.72989235 11.75557047 50.80505945 9.19140625 50.87890625 C8.3872377 50.90594131 7.58306915 50.93297638 6.75453186 50.96083069 C4.83701578 51.01285627 2.91818497 51.01187441 1 51 C0 50 0 50 -0.12025452 47.98155212 C-0.11803391 47.09552811 -0.11581329 46.20950409 -0.11352539 45.29663086 C-0.11344986 44.29566879 -0.11337433 43.29470673 -0.11329651 42.26341248 C-0.10813522 41.1748848 -0.10297394 40.08635712 -0.09765625 38.96484375 C-0.0962413 37.85645645 -0.09482635 36.74806915 -0.09336853 35.60609436 C-0.08775033 32.04986931 -0.07519475 28.49370617 -0.0625 24.9375 C-0.05748734 22.53320403 -0.05292403 20.12890708 -0.04882812 17.72460938 C-0.03777499 11.81638496 -0.02101917 5.9081969 0 0 Z " fill="#FDFDFD" transform="translate(452,14)"/>
<path d="M0 0 C7.59 0 15.18 0 23 0 C23.02292854 5.23280187 23.04284997 10.46543015 23.05493164 15.69824219 C23.05996711 17.47917267 23.06679581 19.260099 23.07543945 21.04101562 C23.08753942 23.59766665 23.09323609 26.15426312 23.09765625 28.7109375 C23.10281754 29.50994476 23.10797882 30.30895203 23.11329651 31.13217163 C23.11387171 36.77225659 23.11387171 36.77225659 22 39 C14.41 39 6.82 39 -1 39 C-1.02724387 34.74995579 -1.0469563 30.50009034 -1.0625 26.25 C-1.07087891 25.06277344 -1.07925781 23.87554687 -1.08789062 22.65234375 C-1.10869811 15.03680477 -0.73603581 7.58058926 0 0 Z " fill="#FDFDFD" transform="translate(112,44)"/>
<path d="M0 0 C0.19110352 0.55349121 0.38220703 1.10698242 0.57910156 1.67724609 C1.46692564 4.2440299 2.35782839 6.80972401 3.25 9.375 C3.5692041 10.29297363 3.8884082 11.21094727 4.21728516 12.15673828 C6.08225956 17.48483105 8.01065766 22.75480839 10.2734375 27.9296875 C11 30 11 30 12 36 C3.75 36 -4.5 36 -13 36 C-15.82148526 27.77738582 -18.48220827 19.56301677 -20.8125 11.1875 C-21.14060669 10.01405029 -21.14060669 10.01405029 -21.4753418 8.81689453 C-23 3.25940801 -23 3.25940801 -23 1 C-20.66687403 0.82987623 -18.33356929 0.66383693 -16 0.5 C-14.700625 0.4071875 -13.40125 0.314375 -12.0625 0.21875 C-8.03604976 -0.03339561 -4.03357044 -0.03601402 0 0 Z " fill="#FCFDFC" transform="translate(37,13)"/>
<path d="M0 0 C1.12341797 -0.01224609 2.24683594 -0.02449219 3.40429688 -0.03710938 C5.01208008 -0.04000977 5.01208008 -0.04000977 6.65234375 -0.04296875 C8.13528931 -0.04913208 8.13528931 -0.04913208 9.64819336 -0.05541992 C12.0625 0.1875 12.0625 0.1875 14.0625 2.1875 C14.04502112 4.78019983 13.92481408 7.2400154 13.6875 9.8125 C13.63078125 10.51890625 13.5740625 11.2253125 13.515625 11.953125 C13.37409079 13.69871361 13.21952613 15.44323673 13.0625 17.1875 C4.33206048 18.61611738 -4.16660399 17.84204448 -12.9375 17.1875 C-12.96434679 14.54159986 -12.98426357 11.89596904 -13 9.25 C-13.00837891 8.49525391 -13.01675781 7.74050781 -13.02539062 6.96289062 C-13.03402441 5.03755687 -12.98974333 3.11214419 -12.9375 1.1875 C-10.40440278 -1.34559722 -3.40755092 0.00194829 0 0 Z " fill="#FEFEFE" transform="translate(120.9375,133.8125)"/>
<path d="M0 0 C0.02887814 3.47914941 0.04675687 6.95826831 0.0625 10.4375 C0.07087891 11.43072266 0.07925781 12.42394531 0.08789062 13.44726562 C0.09272461 14.86362305 0.09272461 14.86362305 0.09765625 16.30859375 C0.10551147 17.62041626 0.10551147 17.62041626 0.11352539 18.95874023 C0 21 0 21 -1 22 C-2.70563778 22.15740605 -4.41727244 22.25093392 -6.12890625 22.31640625 C-7.16337891 22.35830078 -8.19785156 22.40019531 -9.26367188 22.44335938 C-10.35228516 22.48267578 -11.44089844 22.52199219 -12.5625 22.5625 C-14.2012207 22.62727539 -14.2012207 22.62727539 -15.87304688 22.69335938 C-18.58189564 22.79982068 -21.29083992 22.90183516 -24 23 C-22.21480299 18.57770344 -20.38976777 14.81003825 -17.5625 10.9375 C-15.5390218 8.15468721 -13.62026553 5.40088963 -11.875 2.4375 C-10 0 -10 0 -7.5625 -0.9375 C-4.88143837 -1.00289175 -2.61267409 -0.5626627 0 0 Z " fill="#FCFDFC" transform="translate(135,14)"/>
<path d="M0 0 C1.6097168 0.00966797 1.6097168 0.00966797 3.25195312 0.01953125 C4.9312793 0.04466797 4.9312793 0.04466797 6.64453125 0.0703125 C7.77568359 0.07933594 8.90683594 0.08835937 10.07226562 0.09765625 C12.86739953 0.12124388 15.6621097 0.1541595 18.45703125 0.1953125 C19.82655798 2.93436595 19.58324486 5.16618582 19.45703125 8.1953125 C19.12703125 8.8553125 18.79703125 9.5153125 18.45703125 10.1953125 C14.14454516 10.22417787 9.83208363 10.24206505 5.51953125 10.2578125 C4.28783203 10.26619141 3.05613281 10.27457031 1.78710938 10.28320312 C0.61728516 10.28642578 -0.55253906 10.28964844 -1.7578125 10.29296875 C-3.38384399 10.30082397 -3.38384399 10.30082397 -5.04272461 10.30883789 C-7.54296875 10.1953125 -7.54296875 10.1953125 -8.54296875 9.1953125 C-8.79296875 5.7578125 -8.79296875 5.7578125 -8.54296875 2.1953125 C-5.14399202 -0.07067198 -3.97977702 -0.04211404 0 0 Z " fill="#FDFEFE" transform="translate(116.54296875,93.8046875)"/>
<path d="M0 0 C8.91 0 17.82 0 27 0 C27 2.97 27 5.94 27 9 C25.28915499 10.71084501 23.05639907 10.13014689 20.72265625 10.1328125 C19.11680664 10.13474609 19.11680664 10.13474609 17.47851562 10.13671875 C16.35123047 10.13285156 15.22394531 10.12898438 14.0625 10.125 C12.93908203 10.12886719 11.81566406 10.13273437 10.65820312 10.13671875 C9.58634766 10.13542969 8.51449219 10.13414063 7.41015625 10.1328125 C5.92721069 10.13112061 5.92721069 10.13112061 4.41430664 10.12939453 C2 10 2 10 0 9 C0 6.03 0 3.06 0 0 Z " fill="#FDFDFD" transform="translate(108,115)"/>
<path d="M0 0 C0 1.65 0 3.3 0 5 C-7.59 5.33 -15.18 5.66 -23 6 C-23.33 4.68 -23.66 3.36 -24 2 C-15.97649696 0.81603117 -8.13544686 -0.28545428 0 0 Z " fill="#D0D1CF" transform="translate(359,39)"/>
<path d="M0 0 C4.95 0 9.9 0 15 0 C16 3 16 3 15 6 C14.33613281 5.855625 13.67226563 5.71125 12.98828125 5.5625 C12.10527344 5.376875 11.22226562 5.19125 10.3125 5 C9.44238281 4.814375 8.57226562 4.62875 7.67578125 4.4375 C5.06287036 4.01027953 2.64186962 3.92383799 0 4 C0 2.68 0 1.36 0 0 Z " fill="#D5D6D1" transform="translate(289,81)"/>
<path d="M0 0 C0.33 0 0.66 0 1 0 C1.16756928 4.4374664 1.33390157 8.87497832 1.5 13.3125 C1.54769531 14.57513672 1.59539062 15.83777344 1.64453125 17.13867188 C1.68964844 18.34716797 1.73476563 19.55566406 1.78125 20.80078125 C1.82314453 21.91622314 1.86503906 23.03166504 1.90820312 24.1809082 C1.97133905 26.11981914 2 28.0600614 2 30 C1.01 29.34 0.02 28.68 -1 28 C-1.35644531 25.31030273 -1.35644531 25.31030273 -1.328125 21.93359375 C-1.32296875 20.72638672 -1.3178125 19.51917969 -1.3125 18.27539062 C-1.291875 17.00888672 -1.27125 15.74238281 -1.25 14.4375 C-1.24484375 13.16712891 -1.2396875 11.89675781 -1.234375 10.58789062 C-1.15369778 1.15369778 -1.15369778 1.15369778 0 0 Z " fill="#ECEDED" transform="translate(313,45)"/>
<path d="M0 0 C0.86625 0.7734375 0.86625 0.7734375 1.75 1.5625 C0.4760411 3.60083424 -0.86061923 5.60102126 -2.25 7.5625 C-2.91 7.5625 -3.57 7.5625 -4.25 7.5625 C-4.58 6.2425 -4.91 4.9225 -5.25 3.5625 C-5.91 3.5625 -6.57 3.5625 -7.25 3.5625 C-6.92 2.2425 -6.59 0.9225 -6.25 -0.4375 C-3.39943397 -1.55736523 -2.65876672 -1.69865651 0 0 Z " fill="#C1C1BF" transform="translate(152.25,15.4375)"/>
<path d="M0 0 C0 0.33 0 0.66 0 1 C-1.60875 1.2165625 -1.60875 1.2165625 -3.25 1.4375 C-6.71323377 1.86323848 -6.71323377 1.86323848 -8.84375 2.5625 C-11.7418303 3.15051629 -14.31315742 2.84979982 -17.25 2.5625 C-18.32765625 2.46066406 -19.4053125 2.35882813 -20.515625 2.25390625 C-21.33546875 2.17011719 -22.1553125 2.08632813 -23 2 C-23 1.67 -23 1.34 -23 1 C-15.34916042 -0.24911667 -7.72559014 -0.09053426 0 0 Z " fill="#E4E5E2" transform="translate(359,44)"/>
<path d="M0 0 C1.43088528 2.86177057 0.59991697 4.93375773 0 8 C-0.99 7.67 -1.98 7.34 -3 7 C-2.67 6.01 -2.34 5.02 -2 4 C-3.96822886 2.03177114 -7.34808709 2.33751619 -10 2 C-6.5980513 -0.09350689 -3.94727588 -0.17942163 0 0 Z " fill="#F6F7F6" transform="translate(288,13)"/>
<path d="M0 0 C4.29 0 8.58 0 13 0 C13.33 1.32 13.66 2.64 14 4 C10.125 3.125 10.125 3.125 9 2 C7.31391034 1.92794489 5.62499341 1.91613932 3.9375 1.9375 C3.01839844 1.94652344 2.09929687 1.95554687 1.15234375 1.96484375 C0.44207031 1.97644531 -0.26820313 1.98804687 -1 2 C-0.67 1.34 -0.34 0.68 0 0 Z " fill="#A0A09C" transform="translate(291,81)"/>
<path d="M0 0 C0 1.65 0 3.3 0 5 C-3.26954202 4.43628586 -4.82575883 3.50037734 -7 1 C-4.53721199 -0.231394 -2.7204945 -0.07159196 0 0 Z " fill="#B3B3B0" transform="translate(359,39)"/>
<path d="M0 0 C0.33 0 0.66 0 1 0 C1.33 2.64 1.66 5.28 2 8 C0.68 8.33 -0.64 8.66 -2 9 C-2.20140476 5.37471432 -1.85776765 3.13498292 0 0 Z " fill="#E4E6E5" transform="translate(285,27)"/>
<path d="M0 0 C2.31 0 4.62 0 7 0 C5.95125002 2.62187494 5.35068687 3.79371361 2.875 5.25 C2.25625 5.4975 1.6375 5.745 1 6 C1 4.68 1 3.36 1 2 C0.67 1.34 0.34 0.68 0 0 Z " fill="#E6E7E5" transform="translate(151,14)"/>
<path d="M0 0 C1.65 0.99 3.3 1.98 5 3 C4.01 3.495 4.01 3.495 3 4 C2.67 4.99 2.34 5.98 2 7 C1.01 6.67 0.02 6.34 -1 6 C-0.67 4.02 -0.34 2.04 0 0 Z " fill="#F2F4F3" transform="translate(162,81)"/>
<path d="M0 0 C4.7517398 0.43197635 6.92000054 1.32769295 10 5 C9.01 5.495 9.01 5.495 8 6 C7.62875 5.525625 7.2575 5.05125 6.875 4.5625 C4.37353038 2.47794198 2.18406582 2.35378509 -1 2 C-0.67 1.34 -0.34 0.68 0 0 Z " fill="#E9E9E6" transform="translate(298,85)"/>
<path d="M0 0 C2.31 0 4.62 0 7 0 C7 0.66 7 1.32 7 2 C4.69 2.33 2.38 2.66 0 3 C0 2.01 0 1.02 0 0 Z " fill="#B5B6B5" transform="translate(337,41)"/>
</svg>
